<svg width="512" height="512" viewBox="0 0 512 512" xmlns="http://www.w3.org/2000/svg">
  <!-- Background rounded square -->
  <rect width="512" height="512" rx="80" ry="80" fill="#1B4A5F"/>
  
  <!-- Outer frame -->
  <rect x="40" y="40" width="432" height="432" rx="8" ry="8" fill="none" stroke="#7DD3FC" stroke-width="4"/>
  <rect x="48" y="48" width="416" height="416" rx="4" ry="4" fill="none" stroke="#16A34A" stroke-width="3"/>
  
  <!-- Crossword puzzle grid -->
  <!-- Top horizontal word -->
  <g fill="none" stroke="#7DD3FC" stroke-width="2">
    <!-- First horizontal word (top) -->
    <rect x="280" y="80" width="24" height="24"/>
    <rect x="304" y="80" width="24" height="24"/>
    <rect x="328" y="80" width="24" height="24"/>
    <rect x="352" y="80" width="24" height="24"/>
    <rect x="376" y="80" width="24" height="24"/>
    
    <!-- Vertical connection -->
    <rect x="328" y="104" width="24" height="24"/>
    <rect x="328" y="128" width="24" height="24"/>
    <rect x="328" y="152" width="24" height="24"/>
    
    <!-- Large horizontal word (middle) -->
    <rect x="256" y="176" width="24" height="24"/>
    <rect x="280" y="176" width="24" height="24"/>
    <rect x="304" y="176" width="24" height="24"/>
    <rect x="328" y="176" width="24" height="24"/>
    <rect x="352" y="176" width="24" height="24"/>
    <rect x="376" y="176" width="24" height="24"/>
    <rect x="400" y="176" width="24" height="24"/>
    
    <!-- Vertical words -->
    <rect x="256" y="200" width="24" height="24"/>
    <rect x="256" y="224" width="24" height="24"/>
    <rect x="256" y="248" width="24" height="24"/>
    
    <rect x="352" y="200" width="24" height="24"/>
    <rect x="352" y="224" width="24" height="24"/>
    <rect x="352" y="248" width="24" height="24"/>
    <rect x="352" y="272" width="24" height="24"/>
    <rect x="352" y="296" width="24" height="24"/>
    
    <rect x="400" y="200" width="24" height="24"/>
    <rect x="400" y="224" width="24" height="24"/>
    <rect x="400" y="248" width="24" height="24"/>
    <rect x="400" y="272" width="24" height="24"/>
    <rect x="400" y="296" width="24" height="24"/>
    <rect x="400" y="320" width="24" height="24"/>
    <rect x="400" y="344" width="24" height="24"/>
    
    <!-- Bottom horizontal word -->
    <rect x="328" y="368" width="24" height="24"/>
    <rect x="352" y="368" width="24" height="24"/>
    <rect x="376" y="368" width="24" height="24"/>
    <rect x="400" y="368" width="24" height="24"/>
    <rect x="424" y="368" width="24" height="24"/>
  </g>
  
  <!-- Left side pattern -->
  <g fill="none" stroke="#16A34A" stroke-width="2">
    <!-- Left vertical structure -->
    <rect x="88" y="128" width="24" height="24"/>
    <rect x="112" y="128" width="24" height="24"/>
    <rect x="136" y="128" width="24" height="24"/>
    <rect x="160" y="128" width="24" height="24"/>
    
    <!-- L-shaped structure -->
    <rect x="88" y="152" width="24" height="24"/>
    <rect x="88" y="176" width="24" height="24"/>
    <rect x="88" y="200" width="24" height="24"/>
    <rect x="88" y="224" width="24" height="24"/>
    <rect x="88" y="248" width="24" height="24"/>
    <rect x="88" y="272" width="24" height="24"/>
    
    <rect x="112" y="272" width="24" height="24"/>
    <rect x="136" y="272" width="24" height="24"/>
    <rect x="160" y="272" width="24" height="24"/>
    <rect x="184" y="272" width="24" height="24"/>
    
    <!-- Additional intersections -->
    <rect x="160" y="152" width="24" height="24"/>
    <rect x="160" y="176" width="24" height="24"/>
    <rect x="160" y="200" width="24" height="24"/>
    <rect x="160" y="224" width="24" height="24"/>
    <rect x="160" y="248" width="24" height="24"/>
    
    <!-- Bottom connecting structure -->
    <rect x="88" y="320" width="24" height="24"/>
    <rect x="88" y="344" width="24" height="24"/>
    <rect x="88" y="368" width="24" height="24"/>
    
    <rect x="112" y="368" width="24" height="24"/>
    <rect x="136" y="368" width="24" height="24"/>
  </g>
  
  <!-- Fill some cells to create contrast -->
  <g fill="#7DD3FC">
    <rect x="282" y="82" width="20" height="20"/>
    <rect x="330" y="82" width="20" height="20"/>
    <rect x="378" y="82" width="20" height="20"/>
    <rect x="330" y="178" width="20" height="20"/>
    <rect x="378" y="178" width="20" height="20"/>
    <rect x="402" y="178" width="20" height="20"/>
    <rect x="354" y="226" width="20" height="20"/>
    <rect x="402" y="274" width="20" height="20"/>
    <rect x="402" y="322" width="20" height="20"/>
    <rect x="330" y="370" width="20" height="20"/>
    <rect x="378" y="370" width="20" height="20"/>
    <rect x="426" y="370" width="20" height="20"/>
  </g>
  
  <g fill="#16A34A">
    <rect x="90" y="130" width="20" height="20"/>
    <rect x="138" y="130" width="20" height="20"/>
    <rect x="90" y="178" width="20" height="20"/>
    <rect x="90" y="226" width="20" height="20"/>
    <rect x="162" y="178" width="20" height="20"/>
    <rect x="162" y="226" width="20" height="20"/>
    <rect x="138" y="274" width="20" height="20"/>
    <rect x="186" y="274" width="20" height="20"/>
    <rect x="90" y="322" width="20" height="20"/>
    <rect x="90" y="370" width="20" height="20"/>
    <rect x="138" y="370" width="20" height="20"/>
  </g>
</svg>